<svg t="1744026969908" class="icon" viewBox="0 0 1024 1024" version="1.1" xmlns="http://www.w3.org/2000/svg" p-id="4355" width="200" height="200"><path d="M0 512A512 512 0 1 0 512 0 512 512 0 0 0 0 512z" fill="#FF922D" p-id="4356"></path><path d="M19.3536 512A492.6464 492.6464 0 1 0 512 19.3536 492.6464 492.6464 0 0 0 19.3536 512z" fill="#FFFFFF" p-id="4357"></path><path d="M483.8912 461.329067a18.039467 18.039467 0 0 0 32.290133-5.12c4.181333-12.919467 34.952533-336.554667 17.476267-367.530667s-95.761067-16.349867-134.587733-5.000533-114.346667 44.373333-102.536534 82.7392S471.210667 447.658667 483.908267 461.294933z m47.0016-17.339734c0 12.5952 8.7552 27.733333 22.8864 18.4832s277.3504-209.220267 281.378133-234.325333-60.757333-87.722667-116.360533-116.053333-155.511467-65.706667-165.0176-21.4528-22.8864 340.7872-22.8864 353.3824z m30.549333 34.013867a24.797867 24.797867 0 0 0 17.749334 33.979733c18.568533 4.9664 346.0096 15.752533 366.933333 0s5.956267-101.444267-12.6464-155.392-61.7984-131.310933-85.8112-120.200533-280.576 231.6288-286.225067 241.629867z" fill="#FFCB31" p-id="4358"></path><path d="M559.2064 545.467733c6.946133 10.461867 245.128533 271.36 280.6784 271.36s86.818133-125.047467 96.017067-168.004266 25.429333-113.1008 0-120.849067-350.4128-7.748267-363.52-7.748267a16.162133 16.162133 0 0 0-13.141334 25.2416z m-24.541867 19.063467c0 11.844267-13.175467 355.771733 9.489067 382.976s136.8064-17.749333 172.834133-33.536 114.346667-66.184533 102.007467-84.9408-250.2144-258.304-259.771733-268.3392-24.541867-8.004267-24.541867 3.84z" fill="#FFCB31" p-id="4359"></path><path d="M493.789867 558.5408a16.657067 16.657067 0 0 1 30.72 4.334933c5.290667 17.271467 13.090133 345.890133-9.403734 374.8352s-83.473067 14.199467-137.403733-4.4032-104.5504-39.492267-104.5504-69.7856 212.411733-294.178133 220.637867-304.981333zM455.492267 512c23.108267 3.310933 37.888 20.906667 30.276266 34.321067S300.151467 830.941867 256.682667 846.506667s-120.234667-78.301867-152.388267-164.881067-50.244267-165.290667-17.646933-192.631467S432.3328 508.706133 455.441067 512z" fill="#FFCB31" p-id="4360"></path><path d="M487.68 480.8704c-7.662933-14.933333-190.7712-302.4896-209.134933-315.118933s-96.785067 29.44-143.36 102.980266S55.927467 428.714667 87.7056 456.874667s370.107733 44.373333 382.088533 44.373333 25.6-5.376 17.885867-20.309333z" fill="#FFCB31" p-id="4361"></path><path d="M508.7744 527.598933c-4.352 6.826667-9.147733 14.353067-9.6256 15.5648a96.2048 96.2048 0 0 0 9.7792-11.485866c5.12-6.3488 16.571733-5.922133 17.066667 0s0.682667 10.0352 0.682666 11.793066c0 1.399467 0.238933-4.420267 0.529067-10.427733s11.485867-6.4512 17.288533-1.3312 9.796267 9.250133 10.683734 9.966933c1.365333 1.109333-10.478933-11.793067-17.066667-18.961066s0-11.5712 5.717333-11.690667 12.1856 0 13.653334 0-7.543467-0.256-14.1312-1.041067c-2.816-0.341333-6.331733-12.066133-1.604267-16.571733s10.24-9.454933 11.383467-10.752c2.013867-2.269867-9.216 5.768533-13.7728 8.533333s-11.246933 1.399467-11.434667-4.164266-1.262933-11.946667-1.262933-13.653334-2.2528 10.9056-2.850134 13.653334-4.437333 7.7824-8.635733 4.898133a92.996267 92.996267 0 0 1-10.001067-8.277333c-0.699733-0.699733 4.590933 8.106667 7.799467 13.243733 1.058133 1.706667-3.84 10.0864-5.870933 10.069333-6.826667 0-16.110933-0.904533-19.319467-0.904533s9.454933 1.211733 16.6912 2.935467 8.6528 11.741867 4.3008 18.602666z" fill="#FBF7E3" p-id="4362"></path></svg>