<svg t="1744026997555" class="icon" viewBox="0 0 1024 1024" version="1.1" xmlns="http://www.w3.org/2000/svg" p-id="6443" width="200" height="200"><path d="M898.9 638.8c-43.1 144.1-176.7 249.1-334.8 249.1-192.9 0-349.4-156.4-349.4-349.4 0-51.4 11.1-100.2 31-144.2-9.5 31.8-14.6 65.4-14.6 100.3 0 192.9 156.4 349.4 349.4 349.4 141.6 0 263.5-84.2 318.4-205.2z" fill="#E18A1E" p-id="6444"></path><path d="M905.3 556.7c0 34.8-5.1 68.5-14.6 100.3-54.9 121-176.8 205.2-318.3 205.2-193 0-349.4-156.4-349.4-349.4 0-34.8 5.1-68.5 14.6-100.3 54.9-121 176.8-205.2 318.3-205.2 193 0 349.4 156.5 349.4 349.4z" fill="#F3981E" p-id="6445"></path><path d="M803.6 503.9c-4.4 0-8.4-2.9-9.6-7.4-3.8-14.1-8.7-27.5-14.5-39.8-2.3-5-0.2-11 4.8-13.3 5-2.3 11-0.2 13.3 4.8 6.3 13.4 11.6 27.8 15.7 43 1.5 5.3-1.7 10.8-7 12.3-0.9 0.2-1.8 0.4-2.7 0.4zM770.5 430c-3.3 0-6.5-1.6-8.4-4.5-17.9-27.4-40.6-50.8-67.7-69.5-4.5-3.1-5.7-9.4-2.5-13.9 3.1-4.5 9.4-5.7 13.9-2.5 29.2 20.2 53.8 45.5 73.1 75.1 3 4.6 1.7 10.8-2.9 13.8-1.8 0.9-3.7 1.5-5.5 1.5z" fill="#FFFFFF" p-id="6446"></path><path d="M611.5 914.5c-2.4 0-4.6-1.8-4.9-4.2-0.4-2.7 1.4-5.3 4.2-5.7 7.6-1.2 15.1-2.7 20.8-3.9l2.1-0.5c3.8-0.9 7.8-1.9 11.6-2.9 18-4.8 35.8-11.1 52.9-18.7 2.5-1.1 5.5 0 6.6 2.5s0 5.5-2.5 6.6c-17.6 7.9-35.9 14.4-54.5 19.3-3.9 1-8 2-11.8 2.9l-2.3 0.5c-5.8 1.2-13.5 2.8-21.4 4.1-0.2-0.1-0.5 0-0.8 0zM723 876.9c-1.8 0-3.5-0.9-4.4-2.6-1.3-2.4-0.4-5.5 2-6.8 9-4.9 18.1-10.4 27-16.3 2.3-1.5 5.4-0.9 6.9 1.4s0.9 5.4-1.4 6.9c-9.1 6-18.5 11.7-27.8 16.7-0.7 0.5-1.5 0.7-2.3 0.7z" fill="#36475E" p-id="6447"></path><path d="M557.2 918.7c-47.8 0-94.2-9.4-137.9-27.8-42.2-17.8-80.1-43.4-112.7-75.9-32.6-32.5-58.1-70.4-76-112.6-18.5-43.7-27.9-90.1-27.9-138 0-47.8 9.4-94.3 27.8-138 17.8-42.2 43.4-80.1 75.9-112.6s70.4-58.1 112.6-75.9c43.7-18.5 90.1-27.8 138-27.8s94.3 9.4 138 27.8c42.2 17.8 80.1 43.4 112.6 75.9 32.5 32.5 58.1 70.4 75.9 112.6 18.5 43.7 27.8 90.1 27.8 138 0 55-12.3 107.8-36.5 156.7-23.1 46.7-56.9 88.5-97.8 121-2.2 1.7-5.3 1.4-7-0.8-1.7-2.2-1.4-5.3 0.8-7 83.2-65.9 130.7-164.3 130.7-270 0-189.9-154.5-344.4-344.4-344.4-189.9 0-344.4 154.5-344.4 344.4 0 189.9 154.5 344.4 344.4 344.4 2.8 0 5 2.2 5 5s-2.2 5-4.9 5z" fill="#36475E" p-id="6448"></path><path d="M135 343.8s223-204.8 337.1-123c-163.5 119.1-185 163-337.1 123z" fill="#5BB649" p-id="6449"></path><path d="M226.8 373.9c-24.4 0-52.5-4.1-87.2-12.2l-8.9-2.1 6.6-6.4c0.5-0.5 55.6-53.5 124.1-96.1 40.5-25.1 77.7-41.8 110.8-49.6 42.1-9.9 77.4-5.4 105.2 13.3l5.7 3.9-5.5 4.2c-24.3 18.7-45.5 35.6-64.2 50.6-78.2 62.5-118.1 94.4-186.6 94.4z m-75.9-19.8c120 26.6 152.9 0.3 256.1-82.4 17.3-13.8 36.7-29.3 58.7-46.3-24.4-14-55.1-16.7-91.3-8.2-32 7.5-68.2 23.8-107.7 48.3-53.8 33.4-99.1 73.3-115.8 88.6z" fill="#36475E" p-id="6450"></path><path d="M473.3 220.1s189.6 20.1 204.6-109.2c-41.6-7-199.5 58.1-204.6 109.2z" fill="#5BB649" p-id="6451"></path><path d="M513.3 234.5c-27.8 0-47.9-3.6-48.9-3.8l-4.8-0.9 0.7-4.8c2.5-16.2 16.8-33.1 42.6-50.3 50.9-34 137.6-61.7 168.7-54l4.5 1.1-0.8 4.6c-5.7 33.7-21.7 60.1-47.8 78.4-32.7 22.9-75.3 28.7-105.4 29.6-2.9 0-5.9 0.1-8.8 0.1z m-41.8-12.9c20.9 2.9 99.5 10.6 150.4-25.1 22.5-15.8 36.8-38.3 42.7-66.9-29.8-2.9-107.7 21.1-156.1 53.3-20.2 13.6-32.9 26.8-37 38.7z" fill="#36475E" p-id="6452"></path></svg>